<?xml version="1.0" encoding="utf-8"?>
<!-- Generator: Adobe Illustrator 23.1.1, SVG Export Plug-In . SVG Version: 6.00 Build 0)  -->
<svg version="1.1" id="Layer_1" xmlns="http://www.w3.org/2000/svg" xmlns:xlink="http://www.w3.org/1999/xlink" x="0px" y="0px"
	 width="500px" height="500px" viewBox="0 0 500 500" style="enable-background:new 0 0 500 500;" xml:space="preserve">
<style type="text/css">
	.st0{fill:#E2E3E4;}
	.st1{fill:#B6B7BA;}
	.st2{fill:none;stroke:#E2E3E4;stroke-miterlimit:10;}
	.st3{fill:#A9ABAE;}
</style>
<g>
	<circle class="st0" cx="250" cy="250" r="250"/>
	<circle class="st1" cx="250" cy="201.4" r="105.8"/>
	<path class="st2" d="M500,250C500,111.9,388.1,0,250,0S0,111.9,0,250c0,78,35.7,147.7,91.7,193.5c4.7-46.3,24.7-107.3,94.8-127.4
		c0,0,5.3-4.2,14.7,0c9.3,4.2,28.7,10.6,48.7,10.6c20,0,39.4-6.3,48.7-10.6c9.3-4.2,14.7,0,14.7,0c70.1,20.1,90.1,81.1,94.8,127.4
		C464.3,397.7,500,328,500,250z"/>
	<path class="st3" d="M313.4,316.1c0,0-5.3-4.2-14.7,0c-9.3,4.2-28.7,10.6-48.7,10.6c-20,0-39.4-6.3-48.7-10.6
		c-9.3-4.2-14.7,0-14.7,0c-70.1,20.1-90.1,81.1-94.8,127.4C134.9,478.8,190,500,250,500s115.1-21.2,158.3-56.5
		C403.6,397.2,383.5,336.2,313.4,316.1z"/>
</g>
</svg>
