<?xml version="1.0" ?><svg viewBox="0 0 32 32" xmlns="http://www.w3.org/2000/svg"><title/><g data-name="music, audio, multimedia, note, song, sound, research" id="music_audio_multimedia_note_song_sound_research"><path d="M29.62,2.22A1,1,0,0,0,28.77,2l-17,4A1,1,0,0,0,11,7V20.26A5.45,5.45,0,0,0,7.5,19,5.5,5.5,0,1,0,13,24.5V13.79l15-3.53v10A5.45,5.45,0,0,0,24.5,19,5.5,5.5,0,1,0,30,24.5V3A1,1,0,0,0,29.62,2.22ZM7.5,28A3.5,3.5,0,1,1,11,24.5,3.5,3.5,0,0,1,7.5,28ZM13,11.74V7.79L28,4.26v4ZM24.5,28A3.5,3.5,0,1,1,28,24.5,3.5,3.5,0,0,1,24.5,28Z"/></g></svg>