<?xml version="1.0" ?><svg fill="#fff" height="256" viewBox="0 0 256 256" width="256" xmlns="http://www.w3.org/2000/svg"><title/><g id="vegetable-food-healthy"><g><path d="M226.345,130.657l12.84-22.228a6,6,0,0,0-3.99-8.879l-1.41-.28a30.294,30.294,0,0,0-6.47-.61,458.958,458.958,0,0,1,12.62-80.175,2,2,0,0,0-2.44-2.42,429.148,429.148,0,0,1-218.994,0,1.97,1.97,0,0,0-1.91.53,1.994,1.994,0,0,0-.53,1.91,435.815,435.815,0,0,1,14.12,98.473l-2.98-5.16a6.018,6.018,0,0,0-8.2-2.19,6.011,6.011,0,0,0-2.2,8.189l13.33,23.088a436.839,436.839,0,0,1-14.07,96.584,2,2,0,0,0,1.94,2.5,2.054,2.054,0,0,0,.49-.06,450.011,450.011,0,0,1,76.318-12.649l2.81,5.44a13.353,13.353,0,0,0,8.18,6.73,13.873,13.873,0,0,0,3.81.55,13.533,13.533,0,0,0,13.07-10.289,13.552,13.552,0,0,0,.38-3.68c7.89-.1,15.83.02,23.659.38a10.717,10.717,0,0,0,19.609,8.219l3.79-6.57A450.116,450.116,0,0,1,237.5,239.93a2,2,0,0,0,2.43-2.42A454.842,454.842,0,0,1,226.345,130.657Zm1.43-28a25.731,25.731,0,0,1,5.21.53l1.41.28a2,2,0,0,1,1.33,2.96l-13.14,22.758L191.5,183.024l-10.39-6-11.79-6.81a1.988,1.988,0,0,1-.64-2.88l37.849-53.666a26.017,26.017,0,0,1,18.659-10.879c.13-.01.26-.03.38-.04C226.3,102.689,227.035,102.659,227.775,102.659Zm-72.2,26.068a10.322,10.322,0,0,1-3.67.32,10.439,10.439,0,0,1-7.9-5.18,2,2,0,0,0-3.48,1.97,14.485,14.485,0,0,0,10.98,7.19,12.211,12.211,0,0,0,1.35.07c.17,0,.35,0,.52-.01a10.527,10.527,0,0,1-1.58,3.26,6.645,6.645,0,0,1-4.55,2.82,4.385,4.385,0,0,1-1.73-.21c.15-.04.29-.08.44-.13a2,2,0,0,0-1.19-3.82,12.6,12.6,0,0,1-8.56-.47h-.01c-.01,0-.01-.01-.02-.01a12.293,12.293,0,0,1-3.99-2.64,13.3,13.3,0,0,1-3.68-10.5,11.5,11.5,0,0,0,3.39.64h.07a2,2,0,0,0,.06-3.99,7.811,7.811,0,0,1-3.81-1.18,8.615,8.615,0,0,1-3.95-5.31,8.767,8.767,0,0,1,3.83-9.059.83.83,0,0,0,.12-.08.9.9,0,0,0,.19-.15c.01,0,.02-.01.03-.02a1.959,1.959,0,0,0,.41-.51,2.408,2.408,0,0,0,.11-.23,2.192,2.192,0,0,0,.12-.49,2.1,2.1,0,0,0,.02-.25c0-.09-.01-.19-.02-.29l-.03-.15a2,2,0,0,0-.07-.23.143.143,0,0,0-.02-.06,2.206,2.206,0,0,0-.15-.31,3.008,3.008,0,0,0-.23-.3,1.094,1.094,0,0,0-.1-.11,8.128,8.128,0,0,1-.61-.78,9.823,9.823,0,0,1-.27-9.839,10.132,10.132,0,0,0,1,1.17,2,2,0,0,0,2.85-2.81,7.672,7.672,0,0,1-1.7-2.69c0-.01-.01-.01-.01-.02a8.393,8.393,0,0,1,.24-6.57,8.223,8.223,0,0,1,5.67-4.23,7.151,7.151,0,0,1,2.52-.07,2,2,0,1,0,.6-3.96,10,10,0,0,0-1.45-.11,8.265,8.265,0,0,1,.66-2.22,8.659,8.659,0,0,1,6.41-4.85c.03,0,.06-.01.08-.01h.05a8.547,8.547,0,0,1,6.28,1.78c.01.01.02.02.03.02a.174.174,0,0,0,.05.04h.01a.817.817,0,0,0,.2.12.475.475,0,0,0,.18.08.864.864,0,0,0,.17.07,1.312,1.312,0,0,0,.27.06,1.653,1.653,0,0,0,.32.03,2.2,2.2,0,0,0,.44-.05.829.829,0,0,0,.21-.06,1.687,1.687,0,0,0,.41-.19,2.014,2.014,0,0,0,.18-.13c.06-.05.12-.1.17-.15a.69.69,0,0,0,.16-.18.269.269,0,0,0,.07-.08,7.133,7.133,0,0,1,1.46-1.57,8.194,8.194,0,0,1,6.98-1.31,9.385,9.385,0,0,1,4.37,2.7,1.063,1.063,0,0,0,.15.15,1.722,1.722,0,0,0,.34.24c.08.04.17.08.26.12h.02a1.714,1.714,0,0,0,.3.09.355.355,0,0,0,.1.02c.1.01.2.02.3.02a1.925,1.925,0,0,0,.24-.01c.02-.01.05-.01.07-.02h.06a5.617,5.617,0,0,1,4.86,2.2,10.283,10.283,0,0,0-3.56,3.53,2.012,2.012,0,0,0,.69,2.74,2.048,2.048,0,0,0,1.03.28,2,2,0,0,0,1.72-.97,6.624,6.624,0,0,1,3.57-2.82c.02-.01.04-.01.06-.02a6.187,6.187,0,0,1,7.19,2.26,6.787,6.787,0,0,1,1.44,4.2,1.991,1.991,0,0,0,1.96,2.03h.04a2,2,0,0,0,2-1.96,10.478,10.478,0,0,0-1.22-5.04c.15-.09.29-.17.43-.25a7.5,7.5,0,0,1,7.15.13,7.684,7.684,0,0,1,3.51,4.67,6.337,6.337,0,0,0-3.9.16,2,2,0,1,0,1.42,3.74,2.839,2.839,0,0,1,3.24,1.31,4.1,4.1,0,0,1-.17,4.07l-.01.01a2.114,2.114,0,0,0-.11.21,1.665,1.665,0,0,0-.08.2,2.861,2.861,0,0,0-.07.28,1.98,1.98,0,0,0-.03.35,2.021,2.021,0,0,0,.05.43.227.227,0,0,0,.03.11,1.1,1.1,0,0,0,.05.17,2.015,2.015,0,0,0,.18.36.829.829,0,0,0,.11.15,1.539,1.539,0,0,0,.17.19,1.8,1.8,0,0,0,.2.19,5.554,5.554,0,0,1,1.99,3.45,5.718,5.718,0,0,1-1.19,4.19,1.664,1.664,0,0,0-.18.28,1.933,1.933,0,0,0-.23,1.16v.01a1.692,1.692,0,0,0,.04.22.9.9,0,0,0,.06.22,8.706,8.706,0,0,1-.87,7.529,8.408,8.408,0,0,1-7.44,3.69,7.4,7.4,0,0,1-1.77-.35,2,2,0,0,0-3.67-1.58,11.243,11.243,0,0,1-.77,1.45.076.076,0,0,0-.02.04,12.234,12.234,0,0,1-9.29,5.69,9.1,9.1,0,0,1-1.05.02.358.358,0,0,0-.11-.04,1.942,1.942,0,0,0-.83-.02,12.2,12.2,0,0,1-8.96-5.64,2,2,0,1,0-3.41,2.08c.07.11.13.21.21.32a19.446,19.446,0,0,1-12.48,9.049,2,2,0,1,0,.84,3.91,22.391,22.391,0,0,0,5.43-1.93,19.92,19.92,0,0,1,4.36,4.52,1.665,1.665,0,0,0-.27.26A10.4,10.4,0,0,1,155.577,128.727Zm4.58-10.189a23.424,23.424,0,0,0,5.34-5.63,16.271,16.271,0,0,0,7.42,3.78,16.549,16.549,0,0,0,1.72,9.589,16.011,16.011,0,0,0,2.57,3.6,25.606,25.606,0,0,1-8.27,5.23A26.563,26.563,0,0,0,160.157,118.538ZM140.948,59.172a12.434,12.434,0,0,0-7.71,10.9,11.921,11.921,0,0,0-6.84,5.92,12.335,12.335,0,0,0-.78,8.559,13.843,13.843,0,0,0-1.32,15.819,12.778,12.778,0,0,0-3.93,12.069,12.417,12.417,0,0,0,4.4,6.88,16.713,16.713,0,0,0-.27,4.68,2.029,2.029,0,0,0-1.15.32,12.472,12.472,0,0,1-7.41,2.15,9.038,9.038,0,0,1-2.62-.56,1.979,1.979,0,0,0-1.44-.65,8.2,8.2,0,0,1-1.44-1.03.176.176,0,0,0-.05-.04,7.628,7.628,0,0,1-.9-.95,6.989,6.989,0,0,1-1.05-6.71,2,2,0,0,0-3.69-1.53,10.9,10.9,0,0,0,1.46,10.529,14.155,14.155,0,0,1-7.94,3.12,5.846,5.846,0,0,1-3.17-.51,2.132,2.132,0,0,1-1.2-1.71,1.976,1.976,0,0,0-.57-1.44,1.951,1.951,0,0,0-1.42-.61,5.873,5.873,0,0,1-5.49-5.6,5.942,5.942,0,0,1,2.99-4.93,5.023,5.023,0,0,1,2.46-.72,2,2,0,0,0,1.98-2.02,2.028,2.028,0,0,0-2.03-1.98,8.637,8.637,0,0,0-2.73.49,18.778,18.778,0,0,1-2.03-4.18,15.219,15.219,0,0,1,.56-11.779,10.666,10.666,0,0,1,5.48-4.91.076.076,0,0,0,.04-.02,8.366,8.366,0,0,1,3.65-.55,2,2,0,1,0,.33-3.98,11.331,11.331,0,0,0-3.07.15,10.645,10.645,0,0,1,.99-5.16,9.483,9.483,0,0,1,8.51-5.38h.07a5.457,5.457,0,0,1,.58.04,8.114,8.114,0,0,1,6.94,7.32,2,2,0,0,0,2,1.93h.07a2.007,2.007,0,0,0,1.93-2.07,12.168,12.168,0,0,0-9.16-10.919,13.415,13.415,0,0,1,4.2-7,10.618,10.618,0,0,1,4.69-2.25,16.571,16.571,0,0,0-1.39,5.01,2.012,2.012,0,0,0,1.77,2.21c.07,0,.15.01.22.01a2.009,2.009,0,0,0,1.99-1.78,13.417,13.417,0,0,1,2.52-6.33c.02-.03.04-.05.06-.08a13.023,13.023,0,0,1,20.909-.73Zm-26.029,71.215c.26.03.52.05.78.07s.55.03.82.03a16.622,16.622,0,0,0,8.72-2.63,16.791,16.791,0,0,0,4.12,6.86,16.361,16.361,0,0,0,3.18,2.46,27.931,27.931,0,0,0-2.42,23.888,21.87,21.87,0,0,1-9.92.07,22.3,22.3,0,0,1-9.34-4.62A34.139,34.139,0,0,0,114.919,130.387ZM61.68,62.362c-.95-2.29-3.14-3.15-4.9-3.84-.52-.2-1.01-.39-1.44-.6-2.7-1.34-3.89-3.13-3.54-5.33.55-3.41,4.66-7.019,8.61-7.57a22.246,22.246,0,0,1,3.09-.22,13.282,13.282,0,0,1,8.71,2.75c2.4,2.04,3.68,5.11,3.78,9.119a19.571,19.571,0,0,1-7.78,16c-1.44,1.07-3.59,2.29-5.72,2.06-1.52-.16-3.18-1.44-3.12-2.91a7.766,7.766,0,0,1,1.16-2.92C61.5,67.1,62.71,64.862,61.68,62.362ZM20.271,115.818a1.95,1.95,0,0,1-.2-1.51,2,2,0,0,1,3.66-.49l6.84,11.839.1.17,7.96,13.8a8,8,0,0,0,14.61-1.27,7.993,7.993,0,0,0-.65-6.55l-15-25.988a1.95,1.95,0,0,1-.2-1.51,2,2,0,0,1,3.66-.49l14.9,25.808a8,8,0,0,0,14.61-1.27,7.992,7.992,0,0,0-.65-6.55l-15-25.988a1.95,1.95,0,0,1-.2-1.51,2,2,0,0,1,3.66-.49l23,39.837a22,22,0,1,1-38.1,22l-9.34-16.179-.11-.19Zm98.517,112.942a9.478,9.478,0,0,1-17.619,2.12l-3.4-6.59L69.55,169.635c.17-.05.35-.1.52-.16.34-.1.68-.22,1.02-.34.21-.07.41-.15.62-.23a26.533,26.533,0,0,0,3.61-1.73c.43-.25.86-.51,1.27-.79a1.408,1.408,0,0,0,.16-.1c.41-.27.81-.55,1.2-.85.35-.26.7-.54,1.04-.82.11-.09.22-.19.33-.29.28-.24.56-.49.83-.75a1.54,1.54,0,0,0,.19-.17l37.229,58.006a9.491,9.491,0,0,1,1.23,2.86v.01c.04.13.06.25.09.38v.01A9.583,9.583,0,0,1,118.788,228.761Zm44.069,3.87a6.72,6.72,0,0,1-5.83,3.36,6.736,6.736,0,0,1-6.53-5.18,6.715,6.715,0,0,1,.88-5.15c.02-.04.05-.07.07-.11l29.289-44.117,8.76,5.06-22.249,38.527Z"/><path d="M162.237,94.74a13.123,13.123,0,0,0,5.69,1.33,11.976,11.976,0,0,0,6.51-1.86,2,2,0,0,0-2.3-3.27,8.468,8.468,0,0,1-8.19.19,2,2,0,1,0-1.71,3.61Z"/><path d="M150.868,77.7a1.99,1.99,0,0,0-1.17-2.57,9.325,9.325,0,0,0-7.88.12,10.487,10.487,0,0,0-4.76,6.27,1.992,1.992,0,0,0,1.45,2.42A2.118,2.118,0,0,0,139,84a2,2,0,0,0,1.94-1.52,6.483,6.483,0,0,1,2.74-3.69,5.586,5.586,0,0,1,4.62.08A1.99,1.99,0,0,0,150.868,77.7Z"/><path d="M121.458,136.167a2.005,2.005,0,0,0-3.93.8c.02.08,1.59,8.269-2.92,14.349a2,2,0,1,0,3.21,2.39C123.408,146.166,121.538,136.577,121.458,136.167Z"/><path d="M113.7,89.13a9.361,9.361,0,0,0-7.88.12,10.487,10.487,0,0,0-4.76,6.27,2,2,0,1,0,3.88.96,6.483,6.483,0,0,1,2.74-3.69,5.587,5.587,0,0,1,4.62.08,2,2,0,1,0,1.4-3.74Z"/></g></g></svg>
