<?xml version="1.0" ?><svg fill="#fff" id="Icons" style="enable-background:new 0 0 32 32;" version="1.1" viewBox="0 0 32 32" xml:space="preserve" xmlns="http://www.w3.org/2000/svg" xmlns:xlink="http://www.w3.org/1999/xlink"><path d="M27,5H5C3.3,5,2,6.3,2,8v14c0,1.7,1.3,3,3,3h16.4l7,5.8c0.2,0.2,0.4,0.2,0.6,0.2c0.1,0,0.3,0,0.4-0.1  c0.4-0.2,0.6-0.5,0.6-0.9V8C30,6.3,28.7,5,27,5z M17.7,14.3l-2.1,2.1l0.5,2.9c0.1,0.4-0.1,0.8-0.4,1c-0.2,0.1-0.4,0.2-0.6,0.2  c-0.2,0-0.3,0-0.5-0.1L12,18.9l-2.6,1.4c-0.3,0.2-0.7,0.2-1.1-0.1c-0.3-0.2-0.5-0.6-0.4-1l0.5-2.9l-2.1-2.1C6,14,5.9,13.6,6,13.3  c0.1-0.4,0.4-0.6,0.8-0.7l2.9-0.4l1.3-2.7c0.3-0.7,1.5-0.7,1.8,0l1.3,2.7l2.9,0.4c0.4,0.1,0.7,0.3,0.8,0.7  C18.1,13.6,18,14,17.7,14.3z M25,18h-3c-0.6,0-1-0.4-1-1s0.4-1,1-1h3c0.6,0,1,0.4,1,1S25.6,18,25,18z M25,14h-5c-0.6,0-1-0.4-1-1  s0.4-1,1-1h5c0.6,0,1,0.4,1,1S25.6,14,25,14z"/></svg>
